<?xml version="1.0" encoding="UTF-8" standalone="no"?>
<!-- Generator: Adobe Illustrator 19.2.1, SVG Export Plug-In . SVG Version: 6.00 Build 0)  -->

<svg
   xmlns:dc="http://purl.org/dc/elements/1.1/"
   xmlns:cc="http://creativecommons.org/ns#"
   xmlns:rdf="http://www.w3.org/1999/02/22-rdf-syntax-ns#"
   xmlns:svg="http://www.w3.org/2000/svg"
   xmlns="http://www.w3.org/2000/svg"
   xmlns:sodipodi="http://sodipodi.sourceforge.net/DTD/sodipodi-0.dtd"
   xmlns:inkscape="http://www.inkscape.org/namespaces/inkscape"
   version="1.1"
   id="layer"
   x="0px"
   y="0px"
   viewBox="0 0 599.70001 125"
   xml:space="preserve"
   sodipodi:docname="kraken1.svg"
   width="599.70001"
   height="125"
   inkscape:version="0.92.3 (2405546, 2018-03-11)"><metadata
   id="metadata3789"><rdf:RDF><cc:Work
       rdf:about=""><dc:format>image/svg+xml</dc:format><dc:type
         rdf:resource="http://purl.org/dc/dcmitype/StillImage" /><dc:title></dc:title></cc:Work></rdf:RDF></metadata><defs
   id="defs3787" /><sodipodi:namedview
   pagecolor="#ffffff"
   bordercolor="#666666"
   borderopacity="1"
   objecttolerance="10"
   gridtolerance="10"
   guidetolerance="10"
   inkscape:pageopacity="0"
   inkscape:pageshadow="2"
   inkscape:window-width="1920"
   inkscape:window-height="960"
   id="namedview3785"
   showgrid="false"
   inkscape:zoom="1.1947853"
   inkscape:cx="305"
   inkscape:cy="41.955556"
   inkscape:window-x="0"
   inkscape:window-y="27"
   inkscape:window-maximized="1"
   inkscape:current-layer="layer" />
<style
   type="text/css"
   id="style3779">
	.st0{fill:#5741D9;}
</style>
<path
   id="_x23_0da8ffff_1_"
   class="st0"
   d="m 56.83697,15.678976 c 10.4,-0.7 21,1.4 30.3,6.1 13.8,6.8 24.8,19 29.9,33.4 2.3,6.4 3.5,13.1 3.5,19.9 v 25.099994 c 0,1 0,2.1 -0.2,3.1 -0.6,2.5 -2.4,4.8 -4.8,5.9 -1.7,0.8 -3.6,0.9 -5.3,0.6 -3.8,-0.7 -6.8,-4.3 -6.8,-8.2 0,-7.799998 0,-15.599998 0,-23.399994 0.1,-2.2 0.1,-4.6 -1.1,-6.5 -1.9,-3.6 -6.7,-5.3 -10.4,-3.8 -3.2,1.1 -5.5,4.4 -5.6,7.8 0,7.9 0,15.799996 0,23.699996 0,1.499998 0.1,2.999998 -0.4,4.399998 -0.8,2.8 -3.1,5 -5.9,5.8 -3.7,1 -7.9,-0.6 -9.7,-4 -1.3,-2 -1.2,-4.5 -1.1,-6.799998 0,-7.9 0,-15.699996 0,-23.599996 -0.1,-4 -3.4,-7.6 -7.3,-8.1 -2.6,-0.4 -5.3,0.5 -7.2,2.3 -1.7,1.6 -2.6,3.9 -2.6,6.2 v 22.899996 c 0,1.899998 0.2,3.899998 -0.5,5.699998 -1.1,3.3 -4.4,5.7 -7.9,5.6 -3.6,0.2 -7.1,-2.3 -8.2,-5.6 -0.6,-1.7 -0.5,-3.4 -0.5,-5.199998 0,-7.9 0,-15.799996 0,-23.699996 0,-3.9 -3.1,-7.5 -6.9,-8.2 -3.5,-0.7 -7.3,1 -9.1,4.2 -0.7,1.3 -1.1,2.8 -1.1,4.3 v 25.699994 c 0,2.5 -1.1,5 -3,6.6 -2.9,2.5 -7.5999995,2.7 -10.5999995,0.4 -2.2,-1.5 -3.50000004,-4.1 -3.50000004,-6.8 V 75.478976 c 0,-9.8 2.50000004,-19.6 7.20000004,-28.3 3.7999995,-7.1 9.0999995,-13.4 15.3999995,-18.4 9.3,-7.8 21.2,-12.4 33.4,-13.1 z"
   inkscape:connector-curvature="0"
   style="fill:#5741d9" />
<path
   class="st0"
   d="m 290.53697,45.778976 h -13 c 0.5,-9.1 2.4,-17.3 10.7,-22.5 8.3,-5.1 17.4,-6.3 26.9,-5.5 5.1,0.4 10.2,1.5 14.9,3.7 8.3,3.8 12.4,10.3 12.4,19.4 0,16.1 0,32.2 0,48.299996 0,5.9 1.2,7 7.1,6.4 0.6,-0.1 1.3,-0.2 1.9,-0.3 0.1,0.3 0.1,0.6 0.1,0.8 v 9.799998 c -4.7,1.6 -9.5,2.1 -14.2,0.8 -3.5,-1 -5.7,-3.5 -6.9,-6.799998 -0.6,-1.7 -1,-3.5 -1.5,-5.4 -0.5,0.6 -0.9,1.1 -1.4,1.6 -10.3,10.399998 -22.5,14.799998 -36.9,11.099998 -10.2,-2.6 -17.2,-11.899998 -17.5,-22.499994 -0.1,-3.4 0.2,-6.8 1,-10.1 1.9,-7.6 7.3,-12.2 14.1,-15.3 4.8,-2.2 10,-2.8 15.2,-3.5 6.1,-0.8 12.1,-1.5 18.2,-2.4 4.1,-0.6 6.2,-2.8 6.8,-6.9 1.3,-8.3 -2.4,-13.8 -10.4,-15.8 -4.8,-1.2 -9.7,-1.4 -14.6,-0.5 -7.2,1.3 -11.2,5.4 -12.6,12.5 0.1,1 -0.1,2 -0.3,3.1 z m 38.3,16 c -6,3.2 -11.8,4 -17.7,4.9 -4.9,0.8 -9.9,1.5 -14.7,3 -6.3,2.1 -9.2,7.3 -8.6,14.3 0.5,5.799996 4.4,10.499996 10.7,11.499996 9.7,1.6 18.3,-1.1 25.1,-8.3 2,-2.1 3.6,-5.099996 4,-7.899996 0.9,-5.6 0.8,-11.3 1.2,-17.5 z m 185.3,16.8 c -0.3,1.4 -0.5,2.6 -0.8,3.7 -5.6,17.099996 -17,24.399994 -30.8,25.999994 -23.9,2.6 -37.6,-12.999998 -41.1,-29.599994 -2.8,-13.2 -2.4,-26.3 3.4,-38.7 5.5,-11.7 14.3,-19.4 27.4,-21.7 15.7,-2.8 37.9,5 41.6,29.5 1,6.3 1.2,12.8 1.8,19.4 h -60.8 c 0.5,9 1.9,17.4 8.5,23.899996 2.7,2.7 6.2,4 10,4.7 12.3,2.2 22.5,-3.7 26.5,-15.599996 0.4,-1.3 1,-1.7 2.3,-1.6 3.9,0 7.8,0 12,0 z m -58.8,-23 h 45.5 c -0.5,-5.3 -1.4,-10.2 -3.9,-14.8 -2.4,-4.4 -5.9,-7.6 -10.7,-9.2 -15.7,-5.4 -31.9,7.1 -30.9,24 z m 91.5,49.799994 h -13.8 V 19.578976 h 13.1 v 12 c 1,-1.1 1.6,-1.8 2.2,-2.5 9.4,-10.7 21.2,-13.5 34.6,-10.2 9.3,2.3 14.5,8.9 16.3,18.1 0.7,3.8 1.2,7.7 1.2,11.5 0.1,18.4 0.1,36.799996 0.1,55.199994 0,0.5 -0.1,1 -0.1,1.6 h -14.1 v -2.3 c 0,-17.199998 0.1,-34.399994 -0.1,-51.599994 0,-3.8 -0.6,-7.7 -1.7,-11.4 -1.8,-6 -6.6,-9.2 -12.9,-9.5 -11.5,-0.4 -20.6,5.7 -23.4,15.9 -1,3.7 -1.3,7.6 -1.3,11.5 -0.1,15.1 -0.1,30.099996 -0.1,44.999994 z m -181.9,-85.799994 h 13.3 v 36.4 c 0.8,-0.8 1.3,-1.2 1.8,-1.7 10.9,-11.1 21.8,-22.3 32.7,-33.4 0.9,-1 1.8,-1.4 3.2,-1.4 5.1,0.1 10.3,0 15.9,0 -0.8,0.8 -1.2,1.3 -1.7,1.8 -9.6,9.6 -19.1,19.3 -28.8,28.8 -1.1,1.1 -1.1,1.8 -0.4,3 10.5,16.7 20.9,33.399996 31.3,50.099994 0.4,0.6 0.7,1.2 1.2,2.1 -0.7,0.1 -1.2,0.1 -1.8,0.1 -4.8,0 -9.5,0 -14.3,0 -1.3,0 -1.9,-0.5 -2.6,-1.5 -8,-13.399998 -16,-26.799994 -24,-40.299994 -0.4,-0.6 -0.7,-1.2 -1.2,-1.9 -3.7,3.7 -7.3,7.2 -10.9,10.9 -0.5,0.5 -0.6,1.4 -0.6,2.1 0,9.4 0,18.799996 0,28.199994 v 2.4 c -2.6,0 -5.2,0 -7.7,0 -1.8,0 -4.3,0.5 -5.3,-0.5 -0.9,-0.8 -0.4,-3.4 -0.4,-5.199998 V 21.878976 c 0.3,-0.5 0.3,-1.3 0.3,-2.3 z m -153.5,-0.1 c -10.8,10.7 -21.3,21.2 -31.9,31.7 11.4,18.2 22.5,35.999996 33.8,54.199994 -0.9,0 -1.5,0.1 -2.1,0.1 -4.6,0 -9.3,0 -13.9,0 -1.3,0 -2.1,-0.5 -2.8,-1.6 -8,-13.399998 -16,-26.799994 -24,-40.299994 -0.3,-0.6 -0.7,-1.1 -1.2,-1.9 -2,2.1 -3.8,4.4 -6,6 -4.5,3.4 -5.8,7.6 -5.5,13.2 0.5,7.299996 0.1,14.699996 0.1,21.999994 v 2.4 h -13.2 V 19.578976 h 13.2 v 35.8 c 0.3,0.2 0.6,0.4 0.8,0.6 0.4,-0.6 0.6,-1.3 1,-1.8 10.8,-11.1 21.7,-22.1 32.5,-33.3 1,-1 1.9,-1.5 3.4,-1.4 4.5,0.1 9,0 13.5,0 0.7,0 1.3,0 2.3,0 z m 26.4,14.3 c 6.7,-9.8 13.8,-18 27,-15.6 v 14.7 c -3.5,0.2 -7,0.1 -10.3,0.8 -8.1,1.7 -14.4,9.1 -15.7,18.1 -0.2,1.8 -0.4,3.6 -0.4,5.4 0,15.3 0,30.599996 0,45.899994 v 2.4 h -13.6 V 19.778976 h 13 c 0,4.5 0,9 0,14 z"
   id="path3782"
   inkscape:connector-curvature="0"
   style="fill:#5741d9" />
</svg>